<svg version="1.1" xmlns="http://www.w3.org/2000/svg" xmlns:xlink="http://www.w3.org/1999/xlink" viewBox="0 0 273.79 80.25" >
<style type="text/css">
	.st0{fill:#44295E;}
	.st1{fill:#EC1A23;}
	.st2{fill:#FEC907;}
	.st3{fill:#A0CC41;}
	.st4{fill:#FFFFFF;}
</style>
<defs>
</defs>
<g>
	<g>
		<path class="st0" d="M30.13,80.25l-0.51-18.19c9.91-1.1,17.62-9.5,17.62-19.71v0H0v0c0,10.2,7.71,18.6,17.62,19.71l-1.7,18.19
			H30.13z"/>
		<rect y="35.44" class="st0" width="47.23" height="4.78"/>
		<rect y="4.72" class="st1" width="15.46" height="28.49"/>
		<rect x="15.46" y="4.72" class="st2" width="15.46" height="28.49"/>
		<g>
			<polygon class="st3" points="43.91,26.21 45.47,26.21 45.47,22.57 47.11,22.57 47.11,20.32 48.89,20.32 48.89,18.05 46.61,18.05
				46.61,19.93 41.31,19.93 41.31,22.05 41.31,22.57 41.31,25.7 37.49,25.7 37.44,22.05 36.19,22.09 36.11,19.32 39.48,19.25
				39.54,15.07 34.4,15.08 34.34,11.16 36.4,11.16 36.4,8.88 34.3,8.88 34.12,8.88 32.54,8.88 32.54,4.72 30.92,4.72 30.92,33.21
				47.11,33.21 47.11,30.1 43.88,30.1 			"/>
			<polygon class="st3" points="38.67,6.42 40.15,6.42 40.15,4.14 37.87,4.14 37.87,5.05 36.4,5.05 36.4,8.7 38.67,8.7 			"/>
			<polygon class="st3" points="41.86,12.95 42.68,12.95 42.68,10.97 44.5,10.97 44.5,8.7 42.22,8.7 42.22,10.67 40.4,10.67
				40.4,12.79 38.13,12.79 38.13,15.07 39.54,15.07 41.86,15.07 			"/>
			<rect x="45.47" y="12.43" class="st3" width="2.28" height="2.28"/>
			<rect x="43.89" y="3.92" class="st3" width="2.28" height="2.28"/>
			<rect x="48.27" class="st3" width="2.28" height="2.28"/>
			<rect x="48.57" y="5.05" class="st3" width="2.28" height="2.28"/>
			<polygon class="st3" points="49.81,10.67 49.81,12.95 52.09,12.95 52.09,11.81 53.76,11.81 53.76,9.53 51.48,9.53 51.48,10.67
							"/>
			<rect x="51.12" y="14.43" class="st3" width="2.28" height="2.28"/>
			<rect x="56.19" y="17.14" class="st3" width="2.28" height="2.28"/>
			<polygon class="st3" points="51.57,22.42 49.98,22.42 49.98,24.69 52.26,24.69 52.26,23.87 53.85,23.87 53.85,21.6 51.57,21.6
							"/>
			<polygon class="st3" points="49.39,25.7 47.11,25.7 47.11,27.97 49.3,27.97 49.3,29.67 51.57,29.67 51.57,27.4 49.39,27.4 			"/>
		</g>
		<path class="st4" d="M16.96,58.63c-5.5-0.89-12.3-4.9-14.89-12.99C6.76,52.16,11.37,55.84,16.96,58.63z"/>
	</g>
	<g>
		<path class="st0" d="M53.85,35.99h10.7c9.91,0,15.65,5.71,15.65,13.71v0.08c0,8-5.83,13.95-15.81,13.95H53.85V35.99z M64.67,56.92
			c4.6,0,7.65-2.54,7.65-7.01v-0.08c0-4.44-3.05-7.01-7.65-7.01h-3.13v14.11H64.67z"/>
		<path class="st0" d="M84.33,35.99h7.73v27.74h-7.73V35.99z"/>
		<path class="st0" d="M96.17,49.94v-0.08c0-8.08,6.34-14.42,14.94-14.42c4.87,0,8.32,1.51,11.25,4.04l-4.52,5.43
			c-1.98-1.66-3.96-2.62-6.7-2.62c-4,0-7.09,3.37-7.09,7.61v0.08c0,4.48,3.13,7.69,7.53,7.69c1.86,0,3.29-0.4,4.44-1.15v-3.37h-5.47
			v-5.63h12.76v12.48c-2.93,2.42-7.01,4.28-12.05,4.28C102.63,64.29,96.17,58.34,96.17,49.94z"/>
		<path class="st0" d="M127.76,35.99h7.73v27.74h-7.73V35.99z"/>
		<path class="st0" d="M151.53,35.99h11.89c7.01,0,11.53,3.61,11.53,9.75v0.08c0,6.54-5.03,9.99-11.93,9.99h-3.8v7.93h-7.69V35.99z
			 M162.87,49.79c2.73,0,4.4-1.43,4.4-3.61V46.1c0-2.38-1.66-3.65-4.44-3.65h-3.61v7.33H162.87z"/>
		<path class="st0" d="M185.02,35.8h7.41l11.81,27.94H196l-2.02-4.95h-10.7l-1.98,4.95h-8.08L185.02,35.8z M191.76,52.8l-3.09-7.89
			l-3.13,7.89H191.76z"/>
		<path class="st0" d="M207.09,35.99h7.73v27.74h-7.73V35.99z"/>
		<path class="st0" d="M219.89,35.99h7.17l11.41,14.66V35.99h7.61v27.74h-6.74L227.5,48.52v15.22h-7.61V35.99z"/>
		<path class="st0" d="M257.78,42.73h-8.32v-6.74h24.33v6.74h-8.32v21h-7.69V42.73z"/>
	</g>
	<g>
		<path d="M114.84,71.84h0.86v6.86h4.31v0.8h-5.17V71.84z"/>
		<path d="M128.74,76.23c0,0.56-0.08,1.05-0.23,1.48c-0.15,0.42-0.37,0.78-0.65,1.06c-0.28,0.28-0.62,0.5-1.01,0.64
			c-0.39,0.14-0.83,0.21-1.31,0.21c-0.47,0-0.91-0.07-1.3-0.21c-0.39-0.14-0.73-0.35-1.01-0.63c-0.28-0.28-0.5-0.63-0.65-1.04
			c-0.15-0.42-0.23-0.89-0.23-1.43v-4.45h0.86v4.4c0,0.83,0.21,1.47,0.62,1.91c0.41,0.44,0.99,0.67,1.72,0.67
			c0.71,0,1.27-0.21,1.68-0.63c0.42-0.42,0.62-1.05,0.62-1.89v-4.45h0.86V76.23z"/>
		<path d="M137.82,78.83c-0.21,0.16-0.45,0.3-0.69,0.42c-0.25,0.12-0.51,0.21-0.8,0.27c-0.28,0.07-0.6,0.1-0.95,0.1
			c-0.55,0-1.06-0.1-1.53-0.31c-0.47-0.2-0.87-0.48-1.21-0.84c-0.34-0.35-0.61-0.77-0.8-1.25c-0.19-0.48-0.29-1-0.29-1.55
			c0-0.55,0.1-1.06,0.29-1.54c0.19-0.48,0.46-0.9,0.8-1.26c0.34-0.36,0.75-0.65,1.22-0.85c0.47-0.21,0.99-0.31,1.55-0.31
			c0.35,0,0.67,0.03,0.95,0.09c0.28,0.06,0.54,0.14,0.78,0.25c0.24,0.11,0.46,0.23,0.67,0.38c0.2,0.15,0.4,0.32,0.59,0.5l-0.59,0.63
			c-0.33-0.31-0.68-0.56-1.06-0.75c-0.38-0.2-0.83-0.3-1.35-0.3c-0.42,0-0.81,0.08-1.18,0.24c-0.36,0.16-0.67,0.38-0.94,0.67
			c-0.27,0.28-0.47,0.62-0.62,1c-0.15,0.38-0.22,0.8-0.22,1.24c0,0.44,0.07,0.86,0.22,1.25c0.15,0.39,0.36,0.72,0.62,1.01
			c0.27,0.28,0.58,0.51,0.94,0.67c0.36,0.16,0.75,0.25,1.18,0.25c0.52,0,0.98-0.1,1.36-0.29c0.38-0.19,0.75-0.46,1.12-0.81
			l0.57,0.56C138.24,78.49,138.03,78.67,137.82,78.83z"/>
		<path d="M148.17,79.5h-0.93l-0.9-2.02h-4.17l-0.91,2.02h-0.89l3.49-7.71h0.81L148.17,79.5z M144.26,72.8l-1.75,3.9H146
			L144.26,72.8z"/>
		<path d="M151.37,74.24c0.06,0.15,0.16,0.28,0.32,0.4c0.15,0.12,0.36,0.23,0.63,0.33c0.27,0.1,0.62,0.19,1.04,0.28
			c0.85,0.19,1.48,0.45,1.89,0.79c0.4,0.34,0.61,0.8,0.61,1.39c0,0.33-0.07,0.63-0.19,0.9c-0.13,0.27-0.31,0.5-0.54,0.69
			c-0.23,0.19-0.5,0.34-0.82,0.44c-0.32,0.1-0.67,0.15-1.05,0.15c-0.61,0-1.17-0.1-1.68-0.3c-0.51-0.2-0.99-0.5-1.45-0.92l0.54-0.63
			c0.4,0.36,0.81,0.64,1.21,0.81c0.41,0.18,0.88,0.27,1.41,0.27c0.52,0,0.93-0.12,1.24-0.36c0.31-0.24,0.46-0.56,0.46-0.95
			c0-0.18-0.03-0.34-0.09-0.49c-0.06-0.14-0.16-0.27-0.31-0.39c-0.15-0.12-0.35-0.22-0.61-0.32c-0.26-0.09-0.59-0.19-0.99-0.27
			c-0.44-0.09-0.82-0.2-1.15-0.33c-0.33-0.12-0.59-0.27-0.81-0.45c-0.21-0.17-0.37-0.38-0.47-0.61c-0.1-0.23-0.15-0.51-0.15-0.83
			c0-0.31,0.06-0.59,0.19-0.84c0.12-0.26,0.3-0.48,0.52-0.66c0.23-0.19,0.49-0.33,0.8-0.44c0.31-0.11,0.64-0.16,1.01-0.16
			c0.56,0,1.05,0.08,1.47,0.23c0.42,0.15,0.83,0.39,1.22,0.7l-0.5,0.67c-0.36-0.29-0.72-0.5-1.08-0.63c-0.36-0.13-0.74-0.2-1.13-0.2
			c-0.25,0-0.47,0.03-0.67,0.1c-0.2,0.07-0.37,0.15-0.51,0.26c-0.14,0.11-0.25,0.24-0.33,0.39c-0.08,0.15-0.11,0.32-0.11,0.49
			C151.28,73.93,151.31,74.09,151.37,74.24z"/>
		<path d="M167.36,71.98c0.31,0.09,0.57,0.22,0.79,0.38c0.22,0.16,0.39,0.36,0.5,0.6c0.12,0.24,0.17,0.5,0.17,0.79
			c0,0.26-0.03,0.48-0.1,0.67c-0.07,0.19-0.16,0.36-0.28,0.5c-0.12,0.15-0.25,0.27-0.39,0.37c-0.14,0.1-0.29,0.18-0.44,0.25
			c0.23,0.07,0.44,0.15,0.64,0.26c0.2,0.11,0.37,0.23,0.52,0.38c0.15,0.15,0.26,0.32,0.35,0.52c0.09,0.2,0.13,0.44,0.13,0.7
			c0,0.33-0.07,0.62-0.2,0.89c-0.13,0.26-0.32,0.48-0.56,0.66c-0.24,0.18-0.54,0.32-0.88,0.41c-0.34,0.09-0.72,0.14-1.14,0.14h-3.39
			v-7.65h3.25C166.71,71.84,167.05,71.89,167.36,71.98z M167.47,74.9c0.33-0.23,0.49-0.58,0.49-1.03c0-0.39-0.15-0.7-0.44-0.92
			c-0.29-0.23-0.71-0.34-1.25-0.34h-2.32v2.65h2.26C166.72,75.25,167.14,75.14,167.47,74.9z M167.88,78.37
			c0.33-0.24,0.5-0.58,0.5-1.02c0-0.42-0.17-0.75-0.51-0.98c-0.34-0.23-0.85-0.35-1.52-0.35h-2.41v2.71h2.56
			C167.09,78.73,167.55,78.61,167.88,78.37z"/>
		<path d="M179.2,79.5h-0.93l-0.9-2.02h-4.17l-0.91,2.02h-0.89l3.49-7.71h0.81L179.2,79.5z M175.29,72.8l-1.75,3.9h3.49L175.29,72.8
			z"/>
		<path d="M182.4,74.24c0.06,0.15,0.16,0.28,0.32,0.4c0.15,0.12,0.36,0.23,0.63,0.33c0.27,0.1,0.62,0.19,1.04,0.28
			c0.85,0.19,1.48,0.45,1.89,0.79c0.4,0.34,0.61,0.8,0.61,1.39c0,0.33-0.07,0.63-0.19,0.9c-0.13,0.27-0.31,0.5-0.54,0.69
			c-0.23,0.19-0.5,0.34-0.82,0.44c-0.32,0.1-0.67,0.15-1.05,0.15c-0.61,0-1.17-0.1-1.68-0.3c-0.51-0.2-0.99-0.5-1.45-0.92l0.54-0.63
			c0.4,0.36,0.81,0.64,1.21,0.81c0.41,0.18,0.88,0.27,1.41,0.27c0.52,0,0.93-0.12,1.24-0.36c0.31-0.24,0.46-0.56,0.46-0.95
			c0-0.18-0.03-0.34-0.09-0.49c-0.06-0.14-0.16-0.27-0.31-0.39c-0.15-0.12-0.35-0.22-0.61-0.32c-0.26-0.09-0.59-0.19-0.99-0.27
			c-0.44-0.09-0.82-0.2-1.15-0.33c-0.33-0.12-0.59-0.27-0.81-0.45c-0.21-0.17-0.37-0.38-0.47-0.61c-0.1-0.23-0.15-0.51-0.15-0.83
			c0-0.31,0.06-0.59,0.19-0.84c0.12-0.26,0.3-0.48,0.52-0.66c0.23-0.19,0.49-0.33,0.8-0.44c0.31-0.11,0.64-0.16,1.01-0.16
			c0.56,0,1.05,0.08,1.47,0.23c0.42,0.15,0.83,0.39,1.22,0.7l-0.5,0.67c-0.36-0.29-0.72-0.5-1.08-0.63c-0.36-0.13-0.74-0.2-1.13-0.2
			c-0.25,0-0.47,0.03-0.67,0.1c-0.2,0.07-0.37,0.15-0.51,0.26s-0.25,0.24-0.33,0.39c-0.08,0.15-0.11,0.32-0.11,0.49
			C182.31,73.93,182.34,74.09,182.4,74.24z"/>
		<path d="M192.46,79.5h-0.86v-6.86h-2.57v-0.8h6v0.8h-2.57V79.5z"/>
		<path d="M204.41,77.17c-0.19,0.48-0.46,0.9-0.8,1.26c-0.34,0.36-0.75,0.65-1.24,0.87c-0.48,0.22-1.01,0.32-1.6,0.32
			c-0.58,0-1.11-0.11-1.59-0.32c-0.48-0.21-0.89-0.5-1.23-0.86c-0.34-0.36-0.61-0.78-0.79-1.26c-0.19-0.48-0.28-0.98-0.28-1.51
			s0.09-1.04,0.28-1.51c0.19-0.48,0.46-0.9,0.8-1.26c0.34-0.36,0.75-0.65,1.24-0.87c0.48-0.21,1.01-0.32,1.6-0.32
			c0.58,0,1.11,0.11,1.59,0.32c0.48,0.21,0.89,0.5,1.23,0.86c0.34,0.36,0.61,0.78,0.79,1.26c0.19,0.48,0.28,0.98,0.28,1.51
			C204.69,76.19,204.6,76.7,204.41,77.17z M203.57,74.44c-0.15-0.39-0.36-0.72-0.63-1.01c-0.27-0.28-0.59-0.51-0.96-0.68
			c-0.37-0.17-0.77-0.25-1.21-0.25c-0.44,0-0.84,0.08-1.21,0.25c-0.37,0.16-0.68,0.39-0.95,0.67c-0.26,0.28-0.47,0.62-0.62,1
			c-0.15,0.38-0.22,0.79-0.22,1.23c0,0.44,0.07,0.85,0.22,1.24c0.15,0.39,0.36,0.72,0.63,1.01c0.27,0.28,0.59,0.51,0.96,0.68
			c0.37,0.17,0.77,0.25,1.21,0.25c0.44,0,0.84-0.08,1.21-0.25c0.37-0.16,0.68-0.39,0.95-0.67c0.26-0.28,0.47-0.62,0.62-1
			c0.15-0.38,0.22-0.79,0.22-1.23C203.8,75.24,203.72,74.83,203.57,74.44z"/>
		<path d="M208.31,74.24c0.06,0.15,0.16,0.28,0.32,0.4c0.15,0.12,0.36,0.23,0.63,0.33c0.27,0.1,0.62,0.19,1.04,0.28
			c0.85,0.19,1.48,0.45,1.89,0.79c0.4,0.34,0.61,0.8,0.61,1.39c0,0.33-0.07,0.63-0.19,0.9c-0.13,0.27-0.31,0.5-0.54,0.69
			c-0.23,0.19-0.5,0.34-0.82,0.44c-0.32,0.1-0.67,0.15-1.05,0.15c-0.61,0-1.17-0.1-1.68-0.3c-0.51-0.2-0.99-0.5-1.45-0.92l0.54-0.63
			c0.4,0.36,0.81,0.64,1.21,0.81c0.41,0.18,0.88,0.27,1.41,0.27c0.52,0,0.93-0.12,1.24-0.36c0.31-0.24,0.46-0.56,0.46-0.95
			c0-0.18-0.03-0.34-0.09-0.49c-0.06-0.14-0.16-0.27-0.31-0.39c-0.15-0.12-0.35-0.22-0.61-0.32c-0.26-0.09-0.59-0.19-0.99-0.27
			c-0.44-0.09-0.82-0.2-1.15-0.33c-0.33-0.12-0.59-0.27-0.81-0.45c-0.21-0.17-0.37-0.38-0.47-0.61c-0.1-0.23-0.15-0.51-0.15-0.83
			c0-0.31,0.06-0.59,0.19-0.84c0.12-0.26,0.3-0.48,0.52-0.66c0.23-0.19,0.49-0.33,0.8-0.44c0.31-0.11,0.64-0.16,1.01-0.16
			c0.56,0,1.05,0.08,1.47,0.23c0.42,0.15,0.83,0.39,1.22,0.7l-0.5,0.67c-0.36-0.29-0.72-0.5-1.08-0.63c-0.36-0.13-0.74-0.2-1.13-0.2
			c-0.25,0-0.47,0.03-0.67,0.1c-0.2,0.07-0.37,0.15-0.51,0.26s-0.25,0.24-0.33,0.39c-0.08,0.15-0.11,0.32-0.11,0.49
			C208.23,73.93,208.26,74.09,208.31,74.24z"/>
	</g>
	<rect x="53.85" y="74.77" class="st0" width="55.89" height="1.94"/>
	<rect x="217.89" y="74.77" class="st0" width="55.89" height="1.94"/>
</g>
</svg>
